<svg id="Layer_1" data-name="Layer 1" xmlns="http://www.w3.org/2000/svg" xmlns:xlink="http://www.w3.org/1999/xlink" viewBox="0 0 1350 931"><defs><style>.cls-1{fill:#e2231b;}.cls-2{fill:#064d66;}.cls-3{fill:#382134;}.cls-4{clip-path:url(#clip-path);}.cls-5{fill:#fff;}.cls-6{fill:#b42e25;}.cls-7{fill:#ffcc8e;}.cls-8{clip-path:url(#clip-path-2);}.cls-10,.cls-11,.cls-14,.cls-9{fill:none;stroke:#007d9a;stroke-miterlimit:10;}.cls-9{stroke-width:5px;}.cls-10{stroke-width:3px;}.cls-11{stroke-width:10px;}.cls-12{clip-path:url(#clip-path-3);}.cls-13{clip-path:url(#clip-path-4);}.cls-14{stroke-width:2px;}.cls-15{clip-path:url(#clip-path-5);}.cls-16{clip-path:url(#clip-path-6);}.cls-17{clip-path:url(#clip-path-7);}.cls-18{clip-path:url(#clip-path-8);}</style><clipPath id="clip-path"><path class="cls-1" d="M256.66,691.6V866.11a20.61,20.61,0,0,0,17.92,20.43l70.17,9.23H940.26l69.55,1.11a20.59,20.59,0,0,0,17.89-20.42V691.6Z"/></clipPath><clipPath id="clip-path-2"><rect class="cls-2" x="775.45" y="732.16" width="115.88" height="59.87"/></clipPath><clipPath id="clip-path-3"><path class="cls-2" d="M588.31,871.87H546.65V732.81h41.66ZM640,732.81H598.37V871.87H640Z"/></clipPath><clipPath id="clip-path-4"><path class="cls-2" d="M404.62,732.16H281V737C281,767.33,305.54,792,335.7,792h68.92Z"/></clipPath><clipPath id="clip-path-5"><rect class="cls-2" x="414.28" y="732.16" width="113.95" height="59.87"/></clipPath><clipPath id="clip-path-6"><rect class="cls-2" x="657.63" y="732.16" width="108.16" height="59.87"/></clipPath><clipPath id="clip-path-7"><rect class="cls-2" x="903.79" y="732.81" width="57.49" height="139.06"/></clipPath><clipPath id="clip-path-8"><rect class="cls-2" x="997.56" y="707.06" width="30.14" height="121.79"/></clipPath></defs><path class="cls-3" d="M1027.7,701.9V686.34a21.84,21.84,0,0,0-21.84-21.85H278.51a21.85,21.85,0,0,0-21.85,21.85V701.9Z"/><path class="cls-1" d="M256.66,691.6V866.11a20.61,20.61,0,0,0,17.92,20.43l70.17,9.23H940.26l69.55,1.11a20.59,20.59,0,0,0,17.89-20.42V691.6Z"/><g class="cls-4"><path class="cls-5" d="M891.33,872V826H297.75l.56,17.46a24.09,24.09,0,0,0,21.62,23.18l52.5,5.39Z"/></g><path class="cls-3" d="M488.73,632.37h306.9a12,12,0,0,1,12,12v29.2a0,0,0,0,1,0,0H476.73a0,0,0,0,1,0,0v-29.2A12,12,0,0,1,488.73,632.37Z"/><path class="cls-6" d="M786.62,837.75h75.51a13.14,13.14,0,0,1,13.14,13.14V895a0,0,0,0,1,0,0H773.48a0,0,0,0,1,0,0V850.89A13.14,13.14,0,0,1,786.62,837.75Z"/><circle class="cls-3" cx="824.18" cy="886.67" r="44.4"/><circle class="cls-5" cx="824.18" cy="886.67" r="20.28"/><path class="cls-3" d="M832.14,886.67a8,8,0,1,1-8-7.95A8,8,0,0,1,832.14,886.67Z"/><path class="cls-6" d="M422.23,837.75h75.51a13.14,13.14,0,0,1,13.14,13.14V895a0,0,0,0,1,0,0H409.09a0,0,0,0,1,0,0V850.89A13.14,13.14,0,0,1,422.23,837.75Z"/><circle class="cls-3" cx="459.8" cy="886.67" r="44.4"/><circle class="cls-5" cx="459.8" cy="886.67" r="20.28"/><circle class="cls-3" cx="459.8" cy="886.67" r="7.96"/><path class="cls-7" d="M1027.7,866.4H997.56A17.38,17.38,0,0,1,1014.94,849h12.76Z"/><path class="cls-3" d="M269.42,707.06V737c0,36.45,29.82,66.65,66.28,66.65H528.23v92.71h129.4V803.62H889.4v92.71h86.91v-67.6h38.63V707.06Z"/><rect class="cls-2" x="775.45" y="732.16" width="115.88" height="59.87"/><g class="cls-8"><line class="cls-9" x1="738.8" y1="781.8" x2="870.65" y2="710.92"/><line class="cls-10" x1="796.74" y1="812.7" x2="928.59" y2="741.82"/><line class="cls-11" x1="767.77" y1="797.25" x2="899.62" y2="726.37"/></g><path class="cls-2" d="M588.31,871.87H546.65V732.81h41.66ZM640,732.81H598.37V871.87H640Z"/><g class="cls-12"><line class="cls-10" x1="463.57" y1="831.52" x2="655.81" y2="728.17"/><line class="cls-9" x1="524.87" y1="872.71" x2="717.11" y2="769.36"/><line class="cls-11" x1="471.7" y1="867.4" x2="663.93" y2="764.05"/></g><path class="cls-2" d="M404.62,732.16H281V737C281,767.33,305.54,792,335.7,792h68.92Z"/><g class="cls-13"><line class="cls-14" x1="248.23" y1="781.8" x2="380.08" y2="710.92"/><line class="cls-9" x1="306.17" y1="812.7" x2="438.02" y2="741.82"/><line class="cls-11" x1="277.2" y1="797.25" x2="409.05" y2="726.37"/></g><rect class="cls-2" x="414.28" y="732.16" width="113.95" height="59.87"/><g class="cls-15"><line class="cls-9" x1="375.7" y1="781.8" x2="507.55" y2="710.92"/><line class="cls-14" x1="433.64" y1="812.7" x2="565.49" y2="741.82"/><line class="cls-11" x1="400.81" y1="797.25" x2="532.66" y2="726.37"/></g><rect class="cls-2" x="657.63" y="732.16" width="108.16" height="59.87"/><g class="cls-16"><line class="cls-14" x1="628.71" y1="777.94" x2="760.56" y2="707.06"/><line class="cls-9" x1="686.65" y1="808.84" x2="818.5" y2="737.96"/><line class="cls-11" x1="642.23" y1="797.25" x2="774.08" y2="726.37"/></g><rect class="cls-2" x="903.79" y="732.81" width="57.49" height="139.06"/><g class="cls-17"><line class="cls-9" x1="837.3" y1="822.36" x2="969.15" y2="751.48"/><line class="cls-14" x1="895.24" y1="853.26" x2="1027.09" y2="782.38"/><line class="cls-11" x1="850.82" y1="841.68" x2="982.67" y2="770.79"/></g><rect class="cls-2" x="997.56" y="707.06" width="30.14" height="121.79"/><g class="cls-18"><line class="cls-14" x1="918.42" y1="787.6" x2="1050.27" y2="716.71"/><line class="cls-9" x1="976.36" y1="818.5" x2="1108.21" y2="747.61"/><line class="cls-11" x1="931.94" y1="806.91" x2="1063.79" y2="736.03"/></g><path class="cls-3" d="M991.76,707.06v15.45h48.29v31.86c7.72,0,15.45-7.2,15.45-16.09V707.06Z"/></svg>